name ./resultDataOpenSim/trcMotMarkerGrf/sub06/grf-04-07.mot
datacolumns 19
datarows 20
range 1.10800000 1.18400000
endheader

                time	     ground_force_vx	     ground_force_vy	     ground_force_vz	     ground_force_px	     ground_force_py	     ground_force_pz	   l_ground_force_vx	   l_ground_force_vy	   l_ground_force_vz	   l_ground_force_px	   l_ground_force_py	   l_ground_force_pz	     ground_torque_x	     ground_torque_y	     ground_torque_z	   l_ground_torque_x	   l_ground_torque_y	   l_ground_torque_z	
          1.10800000	          0.00000000	          0.00000000	          0.00000000	          0.00000000	          0.00000000	          0.00000000	         72.62493639	        606.77603456	         29.16770264	          0.04563661	         -0.07500000	         -0.03273861	          0.00000000	          0.00000000	          0.00000000	          0.00000000	         -2.09650239	          0.00000000	
          1.11200000	          0.00000000	          0.00000000	          0.00000000	          0.00000000	          0.00000000	          0.00000000	         78.79865027	        631.23609878	         30.51035067	          0.04592828	         -0.07500000	         -0.03251775	          0.00000000	          0.00000000	          0.00000000	          0.00000000	         -2.19364183	          0.00000000	
          1.11600000	          0.00000000	          0.00000000	          0.00000000	          0.00000000	          0.00000000	          0.00000000	         85.50992582	        654.78871929	         31.53335035	          0.04625779	         -0.07500000	         -0.03226867	          0.00000000	          0.00000000	          0.00000000	          0.00000000	         -2.30794464	          0.00000000	
          1.12000000	          0.00000000	          0.00000000	          0.00000000	          0.00000000	          0.00000000	          0.00000000	         92.67364562	        677.26483564	         32.19310022	          0.04659601	         -0.07500000	         -0.03201279	          0.00000000	          0.00000000	          0.00000000	          0.00000000	         -2.43820411	          0.00000000	
          1.12400000	          0.00000000	          0.00000000	          0.00000000	          0.00000000	          0.00000000	          0.00000000	        100.18643751	        698.50667348	         32.47721744	          0.04692302	         -0.07500000	         -0.03174923	          0.00000000	          0.00000000	          0.00000000	          0.00000000	         -2.58091775	          0.00000000	
          1.12800000	          0.00000000	          0.00000000	          0.00000000	          0.00000000	          0.00000000	          0.00000000	        107.94280960	        718.31832422	         32.42210190	          0.04727041	         -0.07500000	         -0.03145870	          0.00000000	          0.00000000	          0.00000000	          0.00000000	         -2.73054229	          0.00000000	
          1.13200000	          0.00000000	          0.00000000	          0.00000000	          0.00000000	          0.00000000	          0.00000000	        115.86003683	        736.43456881	         32.10104064	          0.04767651	         -0.07500000	         -0.03113480	          0.00000000	          0.00000000	          0.00000000	          0.00000000	         -2.88024908	          0.00000000	
          1.13600000	          0.00000000	          0.00000000	          0.00000000	          0.00000000	          0.00000000	          0.00000000	        123.88422985	        752.56850811	         31.59253116	          0.04814799	         -0.07500000	         -0.03078689	          0.00000000	          0.00000000	          0.00000000	          0.00000000	         -3.02301257	          0.00000000	
          1.14000000	          0.00000000	          0.00000000	          0.00000000	          0.00000000	          0.00000000	          0.00000000	        131.96791240	        766.49917003	         30.95806153	          0.04866986	         -0.07500000	         -0.03043013	          0.00000000	          0.00000000	          0.00000000	          0.00000000	         -3.15265913	          0.00000000	
          1.14400000	          0.00000000	          0.00000000	          0.00000000	          0.00000000	          0.00000000	          0.00000000	        140.05989889	        778.12989464	         30.23970561	          0.04920874	         -0.07500000	         -0.03008207	          0.00000000	          0.00000000	          0.00000000	          0.00000000	         -3.26451920	          0.00000000	
          1.14800000	          0.00000000	          0.00000000	          0.00000000	          0.00000000	          0.00000000	          0.00000000	        148.11578296	        787.48041266	         29.46361464	          0.04972546	         -0.07500000	         -0.02975780	          0.00000000	          0.00000000	          0.00000000	          0.00000000	         -3.35554139	          0.00000000	
          1.15200000	          0.00000000	          0.00000000	          0.00000000	          0.00000000	          0.00000000	          0.00000000	        156.09250607	        794.61356628	         28.63664428	          0.05020695	         -0.07500000	         -0.02945932	          0.00000000	          0.00000000	          0.00000000	          0.00000000	         -3.42395523	          0.00000000	
          1.15600000	          0.00000000	          0.00000000	          0.00000000	          0.00000000	          0.00000000	          0.00000000	        163.92722220	        799.54733385	         27.74387336	          0.05067554	         -0.07500000	         -0.02917531	          0.00000000	          0.00000000	          0.00000000	          0.00000000	         -3.46870024	          0.00000000	
          1.16000000	          0.00000000	          0.00000000	          0.00000000	          0.00000000	          0.00000000	          0.00000000	        171.53226339	        802.21382166	         26.75808426	          0.05117278	         -0.07500000	         -0.02889138	          0.00000000	          0.00000000	          0.00000000	          0.00000000	         -3.48888786	          0.00000000	
          1.16400000	          0.00000000	          0.00000000	          0.00000000	          0.00000000	          0.00000000	          0.00000000	        178.81581432	        802.48166223	         25.65702854	          0.05173936	         -0.07500000	         -0.02859764	          0.00000000	          0.00000000	          0.00000000	          0.00000000	         -3.48353033	          0.00000000	
          1.16800000	          0.00000000	          0.00000000	          0.00000000	          0.00000000	          0.00000000	          0.00000000	        185.70776208	        800.20572649	         24.44072952	          0.05238314	         -0.07500000	         -0.02829246	          0.00000000	          0.00000000	          0.00000000	          0.00000000	         -3.45163139	          0.00000000	
          1.17200000	          0.00000000	          0.00000000	          0.00000000	          0.00000000	          0.00000000	          0.00000000	        192.15760226	        795.26772219	         23.14204356	          0.05305925	         -0.07500000	         -0.02798285	          0.00000000	          0.00000000	          0.00000000	          0.00000000	         -3.39254724	          0.00000000	
          1.17600000	          0.00000000	          0.00000000	          0.00000000	          0.00000000	          0.00000000	          0.00000000	        198.10119289	        787.59569479	         21.81342735	          0.05370998	         -0.07500000	         -0.02767832	          0.00000000	          0.00000000	          0.00000000	          0.00000000	         -3.30640261	          0.00000000	
          1.18000000	          0.00000000	          0.00000000	          0.00000000	          0.00000000	          0.00000000	          0.00000000	        203.43432291	        777.13134181	         20.48873497	          0.05431584	         -0.07500000	         -0.02738170	          0.00000000	          0.00000000	          0.00000000	          0.00000000	         -3.19433837	          0.00000000	
          1.18400000	          0.00000000	          0.00000000	          0.00000000	          0.00000000	          0.00000000	          0.00000000	        208.01022078	        763.74524777	         19.15404869	          0.05490251	         -0.07500000	         -0.02708517	          0.00000000	          0.00000000	          0.00000000	          0.00000000	         -3.05846213	          0.00000000	
